<svg xmlns="http://www.w3.org/2000/svg" width="48" height="48" fill="none">
    <path fill-rule="evenodd" clip-rule="evenodd" d="M15.418.552c-1.813.053-2.004.075-2.416.278-1.006.495-1.474 1.777-1.017 2.784.095.21.396.576.67.814l.496.435-.06 1.128c-.039.7-.19 1.761-.4 2.795-.39 1.928-.39 2.495-.001 3.159.475.811 1.329 1.075 2.353.726l.563-.191.328.318c.18.175.485.383.676.463.686.286 1.832.117 2.56-.377l.356-.242.665.312c.59.276.755.312 1.462.312.728 0 .843-.027 1.342-.31l.546-.309.18.231c.1.127.401.34.67.473.867.433 1.9.294 2.672-.357.244-.206.336-.236.485-.156.101.054.397.144.658.2.845.181 1.763-.243 2.145-.991.203-.399.22-1.09.064-2.54-.173-1.596-.145-3.118.075-4.066.096-.416.162-.523.351-.576.128-.036 1.014-.068 1.968-.072 5.013-.022 14.22-.231 14.437-.33.178-.08.242-.188.264-.45.054-.652.107-.645-4.251-.543-2.113.05-9.636.134-16.719.189-14.358.11-13.19.157-13.48-.54-.12-.285-.122-.385-.016-.662.068-.18.243-.416.389-.525.262-.195.322-.198 5.484-.198 3.348 0 6.212.05 7.986.141 3.896.198 20.091.155 20.414-.055.251-.163.291-.699.065-.886-.116-.097-1.847-.117-8.695-.101-6.248.014-9.471-.019-11.972-.12C22.46.54 17.997.476 15.418.552Zm-.994 4.385c-.124.033-.16.253-.207 1.278-.039.844-.15 1.671-.348 2.598-.16.747-.298 1.606-.307 1.907-.015.497.009.57.251.779.3.258.582.241 1.203-.073.191-.097.505-.176.697-.176.3 0 .412.068.782.467.266.288.54.49.715.524.403.08 1.017-.11 1.56-.482.262-.181.582-.322.732-.322.147 0 .568.158.936.35.547.286.77.35 1.209.35.468 0 .604-.045 1.046-.35.742-.51 1.075-.488 1.716.119.763.721 1.264.742 1.98.082.523-.482.968-.564 1.525-.28.504.258.992.258 1.25 0 .183-.184.193-.264.14-1.148-.149-2.442-.168-3.817-.065-4.593.06-.448.133-.879.163-.956.047-.122-.148-.137-1.48-.115l-1.535.026-.029.937a11.74 11.74 0 0 0 .092 1.735c.067.438.11.881.097.984-.046.373-.561.549-.893.305-.257-.19-.451-1.379-.451-2.766V4.875h-2.769l-.09 1.324c-.083 1.215-.109 1.34-.308 1.5-.286.232-.44.222-.709-.047-.212-.212-.221-.27-.18-1.149.024-.509.059-1.083.078-1.276l.035-.352h-2.701l-.002.727c-.002.7-.208 2.448-.326 2.754-.032.083-.16.197-.287.254-.279.127-.666-.017-.749-.28-.03-.095.014-.708.099-1.362.088-.686.127-1.38.09-1.641l-.062-.452-1.374.01c-.755.007-1.441.03-1.524.052Zm-7.93 3.416c-1.147.441-2.091 1.784-2.091 2.974 0 .8.227 1.266.94 1.926 1.883 1.743 4.339.858 4.794-1.727.114-.647-.009-1.495-.298-2.055-.584-1.132-2.041-1.62-3.346-1.118Zm.278 1.167c-.715.357-1.244 1.148-1.244 1.86 0 .756 1.21 1.715 2.05 1.623.535-.059.843-.3 1.17-.92.24-.456.262-.574.227-1.217-.03-.546-.09-.782-.251-1.01-.438-.615-1.146-.737-1.952-.336Zm7.146 5.773c-4.879.61-7.31 5.001-6.095 11.004.48 2.369 1.349 4.668 2.919 7.717 1.483 2.883 1.698 3.517 2.522 7.45.515 2.46.796 3.46 1.219 4.341.337.703.879 1.338 1.35 1.582.71.367 1.8.293 2.311-.156.925-.812 1.248-2.022 1.774-6.637.587-5.159 1.074-6.768 1.887-6.235.598.391.918 1.83 1.44 6.47.44 3.894.782 5.329 1.463 6.125.838.978 2.526.858 3.392-.242.7-.888 1.069-1.961 1.714-4.985.86-4.024 1.139-4.925 2.071-6.699 1.94-3.688 2.94-6.249 3.473-8.885.18-.885.215-1.357.214-2.8-.002-2.074-.147-2.768-.903-4.309-1.06-2.16-2.976-3.433-5.649-3.752-1.66-.198-3.409.111-5.373.95-.787.337-1.029.396-1.77.435-.994.052-1.552-.057-2.57-.503a11.57 11.57 0 0 0-3.217-.876c-1.006-.113-1.235-.112-2.172.005Zm-.328 1.255c-2.891.591-4.545 2.558-4.888 5.814-.317 3.002.863 7.127 3.335 11.658 1.12 2.052 1.528 3.287 2.305 6.96.757 3.575 1.145 4.678 1.829 5.2.413.315 1.049.364 1.338.103.494-.447.812-1.95 1.283-6.05.185-1.616.401-3.28.48-3.696.412-2.172 1.086-3.282 2.073-3.414 1.04-.14 1.818.659 2.273 2.332.253.933.415 2.014.756 5.045.454 4.047.857 5.68 1.457 5.909.543.206 1.217-.125 1.637-.804.35-.567.73-1.858 1.219-4.146.925-4.328 1.126-4.937 2.53-7.662 1.98-3.843 2.894-6.462 3.189-9.13.38-3.448-.746-6.28-2.957-7.433-1.221-.637-1.873-.782-3.468-.772-1.61.01-2.227.14-3.763.793-.775.33-1.896.625-2.472.651-.252.011.198.28.727.433.672.196.873.593.492.974-.447.447-1.34.13-2.401-.854-.925-.857-1.33-1.112-2.355-1.486-1.486-.543-3.248-.705-4.619-.425ZM2.97 17.755c-1.07.297-1.716 1.619-1.38 2.822.323 1.15 1.774 1.936 3.022 1.637.604-.145 1.285-.783 1.458-1.365.38-1.282-.15-2.5-1.297-2.978-.496-.206-1.294-.258-1.803-.116Zm-.013 1.308c-.12.12-.249.395-.285.609-.134.79.47 1.422 1.358 1.422.534 0 .807-.188.945-.65.275-.919-.287-1.6-1.32-1.6-.377 0-.525.046-.698.22Zm36.04 1.023c-.733.374-1.075 1.492-.717 2.348.162.387.696.857 1.141 1.004.547.18 1.373.081 1.757-.211.564-.43.826-1.224.637-1.927-.312-1.158-1.728-1.768-2.817-1.214Zm.435 1.112c-.32.456-.097 1.031.454 1.17.411.103.692-.027.78-.361.149-.564-.093-.896-.711-.979-.312-.042-.394-.015-.523.17Z" fill="#0E384C"/>
    <path fill-rule="evenodd" clip-rule="evenodd" d="M13.918 15.293c-4.878.61-7.31 5.001-6.095 11.004.48 2.369 1.349 4.668 2.919 7.717 1.483 2.883 1.698 3.517 2.522 7.45.516 2.46.796 3.46 1.219 4.341.337.703.88 1.338 1.35 1.582.71.367 1.8.293 2.312-.156.924-.812 1.247-2.022 1.773-6.637.587-5.159 1.074-6.768 1.887-6.235.598.391.919 1.83 1.44 6.47.44 3.894.782 5.329 1.464 6.125.837.978 2.525.858 3.391-.242.7-.888 1.069-1.961 1.714-4.985.86-4.024 1.139-4.925 2.071-6.699 1.94-3.688 2.94-6.249 3.473-8.885.18-.885.215-1.357.214-2.8-.002-2.074-.147-2.768-.903-4.309-1.06-2.16-2.976-3.433-5.649-3.752-1.66-.198-3.409.111-5.372.95-.788.337-1.03.396-1.77.435-.994.052-1.552-.057-2.571-.503a11.57 11.57 0 0 0-3.217-.876c-1.006-.113-1.234-.112-2.172.005Zm-.328 1.255c-2.891.591-4.545 2.558-4.888 5.814-.317 3.002.863 7.127 3.335 11.658 1.12 2.052 1.528 3.287 2.305 6.96.757 3.575 1.145 4.678 1.83 5.2.412.315 1.048.364 1.337.103.494-.447.812-1.95 1.283-6.05.185-1.616.401-3.28.48-3.696.412-2.172 1.086-3.282 2.073-3.414 1.04-.14 1.818.659 2.273 2.332.253.933.415 2.014.756 5.045.454 4.047.857 5.68 1.457 5.909.543.206 1.217-.125 1.637-.804.35-.567.73-1.858 1.219-4.146.925-4.328 1.126-4.937 2.53-7.662 1.98-3.843 2.894-6.462 3.189-9.13.38-3.448-.746-6.28-2.956-7.433-1.222-.637-1.874-.782-3.47-.772-1.61.01-2.226.14-3.762.793-.775.33-1.896.625-2.472.651-.252.011.198.28.727.433.672.196.873.593.492.974-.447.447-1.34.13-2.401-.854-.925-.857-1.33-1.112-2.354-1.486-1.487-.543-3.249-.705-4.62-.425Z" fill="#1E84B5"/>
</svg>

