<svg xmlns="http://www.w3.org/2000/svg" width="48" height="48" fill="none">
    <path fill-rule="evenodd" clip-rule="evenodd" d="M13.302 1.178c-.911.215-2.075 1.03-2.742 1.92-1.312 1.753-2.193 5.085-2.193 8.298 0 1.027.006 1.057.242 1.242l.242.19h24.086l.2-.212c.273-.29.267-.793-.014-1.056l-.212-.2H9.853l.043-.574c.322-4.327 1.42-7.245 3.015-8.007.555-.265 1.359-.288 2.014-.058.3.106.582.228.626.273.046.045-.11.19-.362.338-1.245.727-1.619 1.18-1.404 1.698.236.571.748.606 1.413.097 1.148-.88 2.311-1.323 3.496-1.33 1.297-.007 2.358.45 3.672 1.581.303.26.881.638 1.285.839 1.45.719 2.69.715 4.171-.011.675-.33.918-.524 1.882-1.501 1.805-1.828 2.325-2.162 3.47-2.23.63-.038.765-.015 1.204.2.546.267 1.18.89 1.554 1.528.75 1.282 1.436 3.93 1.75 6.767l.043.39h-1.358c-1.196 0-1.384.02-1.573.174-.303.246-.303.875 0 1.121.195.158.388.174 2.136.174h1.922l.24-.24.238-.238-.058-1.161c-.097-1.945-.458-3.728-1.158-5.715-.686-1.946-1.764-3.342-3.087-3.995-.589-.292-.806-.349-1.453-.383-.418-.022-.976.007-1.24.063-.583.125-1.382.493-1.758.81l-.278.234-.615-.278c-.832-.375-1.383-.54-2.349-.707-2.204-.379-4.62.026-6.34 1.064l-.605.365-.556-.11c-.346-.068-.934-.089-1.555-.056l-1 .052-.44-.35c-1.116-.89-2.437-1.265-3.536-1.006Zm11.68 1.425c-.677.077-1.445.237-2.02.42-1.03.33-1.02.287-.21.95 2.16 1.773 3.702 1.738 5.82-.132l.563-.497-.25-.13c-.712-.374-2.93-.72-3.903-.61Zm8.483 1.55c-.303.304-.284.447.278 2.035.235.665.53 1.698.655 2.295.25 1.197.386 1.408.906 1.408a.678.678 0 0 0 .507-.226c.188-.2.206-.285.154-.729-.131-1.114-1.079-4.271-1.422-4.736-.25-.34-.762-.361-1.078-.046ZM23.255 14.51c-.188.2-.2.3-.2 1.651V17.6l-.299-.182c-.164-.1-.393-.182-.509-.183-.313 0-.661.393-.661.748 0 .256.135.433.946 1.244 1.268 1.268 1.246 1.268 2.515 0 1.037-1.038 1.136-1.266.755-1.75-.237-.302-.69-.324-1.037-.052l-.242.19v-1.459c0-1.407-.007-1.466-.212-1.659-.291-.273-.793-.267-1.057.013Zm-5.047 7.317c-1.26.33-2.482 1.151-3.215 2.162l-.427.59h-5.8l-.2.212c-.163.175-.199.322-.199.83 0 1.341.317 3.353.783 4.979.448 1.56.827 2.027 1.438 1.774a.798.798 0 0 0 .404-.413c.112-.266.101-.364-.106-.97-.449-1.315-.797-2.922-.987-4.553l-.046-.39h27.898l-.047.298a20.06 20.06 0 0 0-.106 1.03c-.125 1.546-.578 3.229-2.645 9.825-1.14 3.635-2.162 6.787-2.273 7.005-.295.58-.864.888-1.639.89-.672 0-1.186-.202-1.419-.558-.079-.12-.577-1.957-1.107-4.081-.547-2.193-1.06-4.048-1.185-4.293-.91-1.778-3.47-2.315-5.024-1.054-.896.727-.976.927-1.956 4.913-.487 1.982-.933 3.725-.99 3.874-.142.363-.583.853-.932 1.035-.68.356-2.015.074-2.435-.516-.098-.137-.662-1.54-1.253-3.117-.955-2.548-1.103-2.882-1.332-3a1.205 1.205 0 0 0-.434-.134c-.25 0-.629.323-.697.594-.079.316 2.128 6.19 2.5 6.652.71.883 1.809 1.344 3.03 1.272 1.304-.076 2.311-.737 2.821-1.85.12-.264.612-2.079 1.092-4.034.48-1.955.931-3.668 1.004-3.806.153-.293.556-.684.877-.85.337-.174 1.099-.15 1.507.046.698.336.766.512 1.794 4.676.883 3.58.966 3.856 1.306 4.366.431.645 1.22 1.212 1.919 1.38.268.064.782.096 1.188.072.926-.054 1.568-.358 2.19-1.04.39-.425.505-.645.783-1.487.499-1.517 3.8-12.246 4.103-13.335.393-1.414.634-2.984.698-4.552.058-1.383.057-1.385-.16-1.538-.192-.134-.557-.152-3.023-.152h-2.804l-.447-.592a5.906 5.906 0 0 0-2.12-1.749c-1.204-.586-1.302-.594-6.746-.59-4.534.003-4.963.017-5.581.179Zm.765 1.385c-.666.097-1.709.584-2.206 1.03l-.368.33 7.432.003 7.433.004-.318-.275c-.506-.438-1.716-.996-2.384-1.1-.725-.113-8.808-.106-9.589.008Zm-8.085 10.864c-.3.299-.287.585.063 1.472.355.9.562 1.148.954 1.148.367 0 .777-.383.777-.726 0-.389-.535-1.688-.788-1.913-.31-.275-.72-.268-1.007.019Z" fill="#1E84B5"/>
    <path opacity=".9" fill-rule="evenodd" clip-rule="evenodd" d="M13.302 1.178c-.911.215-2.075 1.03-2.742 1.92-1.312 1.753-2.193 5.085-2.193 8.298 0 1.027.006 1.057.242 1.242l.242.19h24.086l.2-.212c.273-.29.267-.793-.014-1.056l-.212-.2H9.853l.043-.574c.322-4.327 1.42-7.245 3.015-8.007.555-.265 1.359-.288 2.014-.058.3.106.582.228.626.273.046.045-.11.19-.362.338-1.245.727-1.619 1.18-1.404 1.698.236.571.748.606 1.413.097 1.148-.88 2.311-1.323 3.496-1.33 1.297-.007 2.358.45 3.672 1.581.303.26.881.638 1.285.839 1.45.719 2.69.715 4.171-.011.675-.33.918-.524 1.882-1.501 1.805-1.828 2.325-2.162 3.47-2.23.63-.038.765-.015 1.204.2.546.267 1.18.89 1.554 1.528.75 1.282 1.436 3.93 1.75 6.767l.043.39h-1.358c-1.196 0-1.384.02-1.573.174-.303.246-.303.875 0 1.121.195.158.388.174 2.136.174h1.922l.24-.24.238-.238-.058-1.161c-.097-1.945-.458-3.728-1.158-5.715-.686-1.946-1.764-3.342-3.087-3.995-.589-.292-.806-.349-1.453-.383-.418-.022-.976.007-1.24.063-.583.125-1.382.493-1.758.81l-.278.234-.615-.278c-.832-.375-1.383-.54-2.349-.707-2.204-.379-4.62.026-6.34 1.064l-.605.365-.556-.11c-.346-.068-.934-.089-1.555-.056l-1 .052-.44-.35c-1.116-.89-2.437-1.265-3.536-1.006Zm11.68 1.425c-.677.077-1.445.237-2.02.42-1.03.33-1.02.287-.21.95 2.16 1.773 3.702 1.738 5.82-.132l.563-.497-.25-.13c-.712-.374-2.93-.72-3.903-.61Zm8.483 1.55c-.303.304-.284.447.278 2.035.235.665.53 1.698.655 2.295.25 1.197.386 1.408.906 1.408a.678.678 0 0 0 .507-.226c.188-.2.206-.285.154-.729-.131-1.114-1.079-4.271-1.422-4.736-.25-.34-.762-.361-1.078-.046ZM23.255 14.51c-.188.2-.2.3-.2 1.651V17.6l-.299-.182c-.164-.1-.393-.182-.509-.183-.313 0-.661.393-.661.748 0 .256.135.433.946 1.244 1.268 1.268 1.246 1.268 2.515 0 1.037-1.038 1.136-1.266.755-1.75-.237-.302-.69-.324-1.037-.052l-.242.19v-1.459c0-1.407-.007-1.466-.212-1.659-.291-.273-.793-.267-1.057.013Z" fill="#0E384C"/>
</svg>

