<svg xmlns="http://www.w3.org/2000/svg" width="48" height="49" fill="none">
    <path fill-rule="evenodd" clip-rule="evenodd" d="M22.16 1.175c-.352.154-.762.667-.84 1.05-.06.307.28 3.53.433 4.085.182.66.832 1.2 1.447 1.2h.238v1.312c0 1.187.017 1.33.187 1.5.103.103.272.187.375.187.103 0 .272-.084.375-.187.17-.17.188-.313.188-1.488v-1.3l.372-.05c.512-.069 1.006-.396 1.215-.805.115-.227.232-.845.342-1.819.137-1.207.195-1.475.315-1.473.08.001 1.683.287 3.56.635l3.415.633.101.296c.207.606.665 1.114 1.277 1.42l.589.295h5.783c5.483 0 5.79-.01 5.938-.172.205-.226.197-.605-.016-.798-.153-.138-.526-.155-3.375-.155h-3.204v-.642c0-.712-.146-.952-.579-.952-.396 0-.546.266-.546.968v.626l-1.852-.003c-2.244-.002-2.53-.083-2.85-.805-.223-.505-.192-.927.1-1.338.418-.586.273-.573 6.447-.573 6.307 0 6.068.025 6.012-.64-.05-.6.135-.584-6.216-.556-5.255.024-5.748.04-6.077.193-.504.235-1.128.837-1.33 1.283-.156.348-.193.375-.46.326-5.727-1.043-6.763-1.256-6.851-1.407-.226-.386-.577-.734-.86-.853-.427-.177-3.24-.172-3.652.007Zm.391 1.14c-.101.102-.133.246-.1.446.029.162.134.991.236 1.842.143 1.205.22 1.572.345 1.664.1.073.47.117.976.117 1.187 0 1.145.065 1.399-2.15.201-1.753.203-1.825.04-1.944-.268-.196-2.696-.174-2.896.025Zm-7.697 8.042c-1.323.218-2.592.712-3.604 1.403-2.87 1.961-4.114 6.137-3.23 10.843.562 3 1.508 5.536 3.55 9.516.634 1.237 1.285 2.594 1.446 3.014.377.986.854 2.808 1.321 5.048.527 2.523.727 3.364 1.007 4.219.753 2.305 1.775 3.354 3.266 3.357.812 0 1.33-.238 1.746-.805.813-1.109 1.147-2.634 1.718-7.849.56-5.119 1.06-6.867 1.968-6.867.462 0 .745.44 1.123 1.744.286.986.534 2.628.9 5.967.488 4.448.82 5.895 1.598 6.979.43.599.897.823 1.728.828 1.262.008 2.046-.569 2.774-2.042.486-.982.808-2.13 1.493-5.331.948-4.426 1.154-5.032 2.8-8.237 2.057-4.001 3.07-6.757 3.63-9.87.25-1.398.235-4.107-.031-5.255-.824-3.552-2.858-5.7-6.184-6.529-.671-.167-1.098-.206-2.28-.207-1.963-.001-3.096.247-5.045 1.104a9.069 9.069 0 0 1-1.574.497c-1.064.21-2.047.087-3.203-.397-1.258-.527-2.245-.857-3.068-1.025-1.017-.209-2.904-.26-3.849-.105Zm-.135 1.23c-3.625.733-5.628 3.334-5.787 7.515-.03.797-.006 1.697.062 2.25.382 3.11 1.675 6.701 3.892 10.814 1.25 2.319 1.72 3.706 2.495 7.356.948 4.466 1.266 5.515 1.945 6.407.478.628 1.574.899 1.983.49.71-.71 1.044-2.281 1.644-7.738.427-3.876.824-5.676 1.466-6.646.998-1.507 2.72-1.225 3.517.575.5 1.13.831 2.968 1.255 6.962.48 4.516.937 6.44 1.64 6.9.306.201 1.087.134 1.434-.122.915-.678 1.327-1.819 2.266-6.263.885-4.187 1.316-5.483 2.665-8.015 3.434-6.444 4.595-11.35 3.614-15.259-.298-1.187-1.03-2.555-1.763-3.297-1.261-1.276-3.206-2.066-5.09-2.069-.461 0-.549.03-.683.234-.198.303-.743.33-.92.047a.425.425 0 0 0-.317-.188c-.423 0-2.015.468-2.95.867-1.108.473-1.671.625-2.643.717l-.678.064.462.3c.254.165.612.327.796.36.383.068.757.367.757.605 0 .088-.078.257-.173.374-.137.17-.258.21-.577.198-.657-.026-1.287-.386-2.27-1.3-.558-.517-1.16-.975-1.548-1.178-.768-.4-2.264-.888-2.986-.973l-.527-.062.15.291c.197.382.19.542-.037.769-.402.401-.851.15-1.219-.681l-.197-.444-.534.009a7.656 7.656 0 0 0-1.144.132Zm14.644.62c-.36.368-.863 1.303-.863 1.606 0 .29.27.54.582.54.277 0 .362-.088.692-.713.133-.252.323-.546.422-.652.249-.27.234-.742-.03-.926-.304-.214-.485-.181-.803.145Zm-11.158.523c-.188.075-.314.482-.21.678.05.091.377.447.727.789.704.687 1.026.79 1.288.416.214-.305.181-.509-.15-.92-.608-.757-1.244-1.128-1.655-.963Zm10.342 2.016c-.268.153-.325.266-.327.654a.955.955 0 0 1-.223.61 1.75 1.75 0 0 0-.283.461c-.081.26.26.695.546.695.53 0 1.085-.846 1.082-1.647-.001-.517-.047-.621-.343-.777-.244-.128-.218-.128-.452.004Zm-8.862.5c-.295.357-.054 1.015.591 1.609.541.499.771.57 1.087.334.407-.302.372-.558-.143-1.047-.25-.236-.526-.567-.614-.734-.133-.254-.214-.305-.48-.305-.177 0-.375.065-.441.144Zm6.893 1.471c-.206.046-.602.113-.88.149-.403.052-.546.119-.702.327-.18.242-.184.282-.053.516.115.207.219.259.56.284.513.037 1.469-.138 1.755-.321.15-.097.21-.227.21-.45 0-.478-.284-.639-.89-.505Zm-4.485.151c-.194.214-.2.614-.015.8.14.14.717.279 1.576.38.392.046.48.023.68-.176.516-.517.192-.868-.964-1.044-1.07-.162-1.095-.161-1.277.04Z" fill="#1E84B5"/>
    <path fill-rule="evenodd" clip-rule="evenodd" d="M22.16 1.175c-.352.154-.763.667-.84 1.05-.06.307.28 3.53.433 4.085.182.66.832 1.2 1.447 1.2h.238v1.312c0 1.187.017 1.33.187 1.5.103.103.272.187.375.187.103 0 .272-.084.375-.187.17-.17.188-.313.188-1.488v-1.3l.372-.05c.512-.069 1.006-.396 1.215-.805.115-.227.232-.845.342-1.819.137-1.207.195-1.475.314-1.473.081.001 1.683.287 3.561.635l3.415.633.101.296c.207.606.665 1.114 1.277 1.42l.589.295h5.783c5.483 0 5.79-.01 5.938-.172.205-.226.197-.605-.017-.798-.152-.138-.525-.155-3.375-.155h-3.203v-.642c0-.712-.146-.952-.579-.952-.396 0-.546.266-.546.968v.626l-1.852-.003c-2.244-.002-2.53-.083-2.85-.805-.223-.505-.192-.927.1-1.338.418-.586.273-.573 6.447-.573 6.306 0 6.068.025 6.012-.64-.05-.6.135-.584-6.216-.556-5.255.024-5.748.04-6.077.193-.504.235-1.128.838-1.33 1.283-.156.348-.194.375-.46.326-5.727-1.043-6.763-1.256-6.851-1.407-.226-.386-.577-.734-.861-.853-.426-.177-3.24-.172-3.652.007Zm.391 1.14c-.101.102-.133.246-.1.446.028.162.134.991.236 1.842.143 1.205.22 1.573.345 1.664.099.073.47.117.976.117 1.187 0 1.144.065 1.399-2.15.201-1.753.203-1.825.04-1.944-.268-.196-2.696-.174-2.896.025Z" fill="#0E384C"/>
</svg>

