<svg xmlns="http://www.w3.org/2000/svg" width="47" height="48" fill="none">
    <g clip-path="url(#a)" fill-rule="evenodd" clip-rule="evenodd">
        <path d="M18.91.167c-1.14.124-2.653.674-3.7 1.343-.59.378-1.863 1.56-2.186 2.032-.17.25-.325.342-.767.462-3.268.884-5.312 2.076-5.884 3.431-.203.48-.165 1.267.086 1.802.507 1.08 2.306 2.238 4.573 2.942.413.129.533.21.579.39.11.443.705 1.591 1.188 2.297.27.392.595.923.725 1.18.662 1.304 1.472 4.277 2.49 9.133.324 1.549.672 2.978.773 3.176.203.396.732.904 1.083 1.037.3.115.875.109 1.194-.011.369-.14.838-.615 1.08-1.096.115-.227.963-2.623 1.886-5.325.922-2.7 1.713-4.95 1.758-5 .105-.113 1.244-.18 1.754-.102l.39.06 1.744 5.109c.96 2.81 1.854 5.282 1.987 5.493.505.796 1.331 1.135 2.128.872.432-.143 1.026-.748 1.204-1.227.078-.212.391-1.583.695-3.047.304-1.464.7-3.27.88-4.01l.327-1.35 1.643-.028c2.169-.038 2.05.069 2.09-1.867l.03-1.42h2.819l.19-.242c.179-.228.19-.358.19-2.207 0-1.965 0-1.966-.225-2.191-.21-.21-.29-.226-1.17-.227h-.946l.678-.37c.914-.498 1.647-1.092 2.005-1.622 1.293-1.92-.242-3.833-4.106-5.12-.968-.323-1.006-.346-1.375-.836A8.975 8.975 0 0 0 33.392.93c-1.92-.9-3.894-1.036-5.963-.41-1.633.494-3.455.528-4.812.089C21.4.215 20.001.049 18.91.167Zm-.61 1.445c-2.697.611-4.885 2.786-5.643 5.61-.21.785-.291 2.786-.146 3.631l.072.423 1.121.244c3.232.704 6.338 1.003 10.53 1.013 3.688.009 6.242-.156 6.242-.402 0-.085.096-.244.213-.354.198-.187.301-.2 1.606-.2h1.394v-1.364c0-1.241.017-1.386.19-1.606l.19-.242H37.249l-.12-.62c-.477-2.486-2.088-4.596-4.298-5.63-1.593-.745-3.494-.839-5.245-.258l-.918.305-1.836-.002c-1.832-.002-1.838-.003-2.754-.308-.804-.267-1.06-.309-2.066-.336-.757-.021-1.339.012-1.71.096Zm-7.375 4.185c-1.23.434-2.254.983-2.799 1.5-.715.68-.773 1.126-.225 1.75.478.544 1.646 1.202 2.963 1.67.325.115.35.112.294-.032-.033-.086-.06-.676-.06-1.311 0-1.409.2-2.464.698-3.694.085-.211.044-.205-.871.117Zm27.079.045c0 .023.1.387.222.81.225.777.404 2.067.444 3.205l.022.62.78-.389a5.409 5.409 0 0 0 1.308-.9c.48-.464.528-.547.528-.9 0-.335-.057-.452-.405-.822A5.119 5.119 0 0 0 40 6.733c-.498-.3-1.996-.97-1.996-.891Zm-2.953 5.239c-.04 1.873.056 1.782-1.877 1.782h-1.413v2.295h1.383c.761 0 1.459.04 1.551.09.28.15.371.614.371 1.897v1.226H37.27V16.99c0-1.344.006-1.388.226-1.607.219-.22.262-.225 1.606-.225h1.381v-2.295H37.65l-.19-.242c-.174-.22-.19-.365-.19-1.607V9.65H35.082l-.032 1.431Zm-21.858 1.85c.099.262.402.767.812 1.355 1.21 1.73 1.972 4.202 3.346 10.832.261 1.262.53 2.426.596 2.586.252.607.728.588 1.039-.042.092-.188.948-2.632 1.901-5.432.953-2.8 1.805-5.163 1.894-5.252.276-.276 1.154-.482 2.05-.481.894.001 1.868.226 2.097.485.073.082.94 2.512 1.926 5.4.986 2.887 1.839 5.333 1.894 5.436.17.318.441.41.702.239a.898.898 0 0 0 .306-.354c.042-.112.332-1.421.644-2.91.312-1.487.73-3.38.928-4.207.334-1.389.361-1.602.361-2.823v-1.32h-1.423c-1.871 0-1.79.074-1.79-1.618v-1.251l-.344.052c-2.054.315-8.624.306-11.592-.015-1.743-.189-3.473-.448-4.662-.699-.37-.077-.688-.141-.709-.141-.02 0-.01.072.024.16ZM10.865 17.1c-.27.133-.4.462-.4 1v.455H9.93c-.65 0-.935.208-.935.678 0 .451.229.607.891.607h.556l.039.61c.043.684.246.95.72.95.408 0 .64-.369.64-1.021v-.539h.582c.6 0 .777-.094.918-.487.07-.201-.15-.662-.357-.74-.082-.032-.368-.058-.635-.058h-.487l-.038-.598c-.023-.356-.092-.65-.172-.728-.187-.183-.556-.244-.788-.129Zm27.18 7.556c-.19.189-.225.313-.225.78v.555h-.555c-.467 0-.59.036-.78.225-.276.275-.285.5-.035.818.17.216.252.242.78.242h.59v.555c0 .467.036.59.225.78.273.273.628.29.877.042.146-.146.183-.306.183-.78v-.597h.597c.683 0 .964-.182.964-.627 0-.44-.33-.658-.993-.658h-.568v-.59c0-.528-.025-.61-.242-.78-.317-.25-.542-.24-.818.035Zm-21.658 5.569c-.605.208-1.005.432-3.609 2.024-.976.597-1.803 1.085-1.837 1.084-.035 0-.158-.146-.273-.324-.231-.357-.569-.531-.83-.43-.093.037-1.331.808-2.751 1.715-2.917 1.861-2.944 1.888-2.57 2.548.609 1.077 6.272 9.878 6.476 10.063.145.133.312.2.437.176.3-.057 5.454-3.373 5.564-3.58.132-.247.053-.491-.376-1.155-.204-.315-.37-.589-.37-.609 0-.02.417-.288.927-.596l.927-.56 4.328 1.438c3.889 1.291 4.408 1.442 5.109 1.483a4.625 4.625 0 0 0 2.478-.514c.513-.264 9.799-6.19 10.357-6.61.696-.524 1.188-1.662 1.086-2.515a3.006 3.006 0 0 0-2.572-2.606c-.874-.12-1.32.094-4.602 2.208l-3.03 1.95-.205-.392c-.231-.441-.766-.997-1.153-1.198-.25-.13-10.396-3.5-11.126-3.696-.609-.163-1.767-.117-2.385.096Zm.412 1.257c-.38.127-4.897 2.772-5.126 3-.043.043 3.714 5.98 3.829 6.051.038.024.573-.264 1.189-.64.616-.376 1.203-.684 1.304-.684.102 0 2.126.643 4.498 1.428 2.373.786 4.54 1.465 4.817 1.51.63.102 1.5-.029 2.062-.311.229-.116 2.649-1.64 5.378-3.39 5.48-3.512 5.365-3.418 5.365-4.353 0-.83-.661-1.493-1.489-1.493-.248 0-.541.047-.651.103-.11.057-1.648 1.028-3.415 2.158l-3.215 2.054-.16.45c-.21.595-.908 1.358-1.487 1.628-.344.16-.624.215-1.105.216-.569 0-.942-.099-3.207-.855-2.1-.7-2.596-.898-2.74-1.092-.223-.297-.118-.696.234-.895.224-.126.4-.082 2.848.712 1.435.465 2.742.845 2.905.845.584 0 1.142-.469 1.336-1.123.073-.244.116-.494.098-.555a6.39 6.39 0 0 1-.09-.362c-.03-.138-.182-.397-.338-.574-.268-.306-.566-.416-5.713-2.119-5.949-1.967-6.186-2.024-7.127-1.709Zm-8.95 3.88c-1.08.695-1.832 1.238-1.825 1.316.017.196 5.48 8.764 5.588 8.764.13 0 3.747-2.327 3.782-2.433.037-.11-5.493-8.782-5.618-8.81-.05-.012-.918.511-1.928 1.162Z" fill="#1E84B5"/>
        <path d="M18.91.167c-1.14.124-2.652.674-3.7 1.343-.59.378-1.862 1.56-2.185 2.032-.17.25-.325.342-.767.462-3.268.884-5.312 2.076-5.885 3.431-.202.48-.164 1.267.087 1.802.507 1.08 2.306 2.238 4.573 2.942.413.129.533.21.578.39.111.443.706 1.591 1.189 2.297.269.392.595.923.725 1.18.661 1.304 1.471 4.277 2.49 9.133.324 1.549.672 2.978.773 3.176.202.396.732.904 1.083 1.037.3.115.875.109 1.194-.011.368-.14.837-.615 1.08-1.096.115-.227.963-2.623 1.885-5.325.922-2.7 1.714-4.95 1.759-5 .104-.113 1.243-.18 1.754-.102l.39.06 1.744 5.109c.96 2.81 1.853 5.282 1.987 5.493.504.796 1.33 1.135 2.128.872.432-.143 1.025-.748 1.203-1.227.079-.212.392-1.583.696-3.047.303-1.464.7-3.27.88-4.01l.327-1.35 1.642-.028c2.17-.038 2.05.069 2.09-1.867l.03-1.42h2.82l.19-.242c.178-.228.19-.358.19-2.207 0-1.965 0-1.966-.226-2.191-.21-.21-.29-.226-1.17-.227h-.945l.678-.37c.913-.498 1.647-1.092 2.004-1.622 1.293-1.92-.241-3.833-4.106-5.12-.968-.323-1.005-.346-1.375-.836A8.975 8.975 0 0 0 33.393.93C31.472.03 29.499-.106 27.43.52c-1.633.494-3.456.528-4.812.089C21.4.215 20.002.049 18.91.167Zm-.609 1.445c-2.697.611-4.885 2.786-5.643 5.61-.211.785-.292 2.786-.147 3.631l.073.423 1.12.244c3.233.704 6.339 1.003 10.53 1.013 3.688.009 6.243-.156 6.243-.402 0-.085.095-.244.212-.354.2-.187.302-.2 1.607-.2h1.394v-1.364c0-1.241.017-1.386.19-1.606l.19-.242h3.178l-.119-.62c-.478-2.486-2.088-4.596-4.298-5.63-1.593-.745-3.495-.839-5.246-.258l-.918.305-1.836-.002c-1.832-.002-1.838-.003-2.754-.308-.804-.267-1.06-.309-2.065-.336-.757-.021-1.34.012-1.71.096Zm-7.376 4.185c-1.23.434-2.254.983-2.798 1.5-.716.68-.773 1.126-.226 1.75.478.544 1.646 1.202 2.964 1.67.325.115.349.112.293-.032-.033-.086-.06-.676-.06-1.311 0-1.409.2-2.464.698-3.694.086-.211.045-.205-.87.117Zm27.08.045c0 .023.1.387.222.81.225.777.404 2.067.444 3.205l.022.62.78-.389a5.41 5.41 0 0 0 1.308-.9c.48-.464.528-.547.528-.9 0-.335-.058-.452-.405-.822A5.123 5.123 0 0 0 40 6.733c-.498-.3-1.996-.97-1.996-.891Zm-2.953 5.239c-.04 1.873.055 1.782-1.877 1.782h-1.413v2.295h1.383c.76 0 1.458.04 1.55.09.28.15.372.614.372 1.897v1.226H37.27V16.99c0-1.344.006-1.388.225-1.607.22-.22.263-.225 1.607-.225h1.38v-2.295H37.65l-.19-.242c-.173-.22-.19-.365-.19-1.607V9.65H35.083l-.031 1.431Zm-21.858 1.85c.098.262.401.767.812 1.355 1.209 1.73 1.972 4.202 3.346 10.832.261 1.262.53 2.426.596 2.586.252.607.727.588 1.038-.042.093-.188.949-2.632 1.902-5.432.952-2.8 1.805-5.163 1.893-5.252.277-.276 1.155-.482 2.05-.481.895.001 1.869.226 2.098.485.072.082.94 2.512 1.926 5.4.986 2.887 1.838 5.333 1.893 5.436.17.318.442.41.703.239a.898.898 0 0 0 .305-.354c.043-.112.333-1.421.645-2.91.312-1.487.73-3.38.928-4.207.333-1.389.36-1.602.36-2.823v-1.32h-1.422c-1.872 0-1.79.074-1.79-1.618v-1.251l-.345.052c-2.053.315-8.623.306-11.591-.015-1.743-.189-3.473-.448-4.662-.699-.37-.077-.689-.141-.71-.141-.02 0-.009.072.025.16ZM10.866 17.1c-.27.133-.401.462-.401 1v.455h-.533c-.65 0-.936.208-.936.678 0 .451.23.607.892.607h.556l.038.61c.044.684.246.95.72.95.409 0 .64-.369.64-1.021v-.539h.582c.6 0 .778-.094.918-.487.072-.201-.15-.662-.357-.74-.081-.032-.367-.058-.635-.058h-.487l-.038-.598c-.022-.356-.091-.65-.171-.728-.187-.183-.557-.244-.788-.129Zm27.18 7.556c-.19.189-.225.313-.225.78v.555h-.555c-.467 0-.591.036-.78.225-.276.275-.286.5-.036.818.17.216.252.242.78.242h.59v.555c0 .467.036.59.226.78.273.273.628.29.876.042.146-.146.184-.306.184-.78v-.597h.596c.684 0 .964-.182.964-.627 0-.44-.33-.658-.992-.658h-.568v-.59c0-.528-.026-.61-.242-.78-.318-.25-.543-.24-.818.035Z" fill="#0E384C"/>
    </g>
    <defs>
        <clipPath id="a">
            <path fill="#fff" transform="translate(0 .103)" d="M0 0h47v47H0z"/>
        </clipPath>
    </defs>
</svg>

