<?xml version="1.0" encoding="utf-8"?>
<!-- Generator: Adobe Illustrator 27.5.0, SVG Export Plug-In . SVG Version: 6.00 Build 0)  -->
<svg version="1.1" id="Layer_1" xmlns="http://www.w3.org/2000/svg" xmlns:xlink="http://www.w3.org/1999/xlink" x="0px" y="0px"
	 viewBox="0 0 5000 2916" style="enable-background:new 0 0 5000 2916;" xml:space="preserve">
<g>
	<rect style="fill-rule:evenodd;clip-rule:evenodd;fill:#FFFFFF;" width="5000" height="2916"/>
	<defs>
		<filter id="Adobe_OpacityMaskFilter" filterUnits="userSpaceOnUse" x="0" y="1156.531" width="4090.878" height="1759.469">
			<feColorMatrix  type="matrix" values="1 0 0 0 0  0 1 0 0 0  0 0 1 0 0  0 0 0 1 0"/>
		</filter>
	</defs>
	<mask maskUnits="userSpaceOnUse" x="0" y="1156.531" width="4090.878" height="1759.469" id="SVGID_1_">
		<g style="filter:url(#Adobe_OpacityMaskFilter);">
			
				<linearGradient id="SVGID_00000132778421040249695090000009303571624034670979_" gradientUnits="userSpaceOnUse" x1="213.9718" y1="1272.4998" x2="2503.9939" y2="2227.4937">
				<stop  offset="0" style="stop-color:#FFFFFF"/>
				<stop  offset="1" style="stop-color:#000000"/>
			</linearGradient>
			
				<rect y="1156.53" style="fill:url(#SVGID_00000132778421040249695090000009303571624034670979_);" width="4090.878" height="1759.47"/>
		</g>
	</mask>
	<path style="mask:url(#SVGID_1_);fill-rule:evenodd;clip-rule:evenodd;fill:#EDEEEE;" d="M1783.188,1573.538
		c-230.439-266.972-620.81-432.091-983.551-415.918C505.315,1170.748,250.373,1291.555,0,1407.355v97.653
		c228.132-104.991,462.688-205.48,729.636-217.388c362.741-16.173,753.113,148.946,983.552,415.918
		c140.757,163.09,220.688,353.929,319.8,535.659c166.51,305.46,466.818,553.243,831.048,676.803h1226.841
		c-383.192-25.984-771.71-1.903-1147.571-126.887c-368.402-122.479-672.398-371.867-840.317-679.916
		C2003.876,1927.467,1923.947,1736.627,1783.188,1573.538"/>
	<defs>
		
			<filter id="Adobe_OpacityMaskFilter_00000178903884904246208330000008853929442380769452_" filterUnits="userSpaceOnUse" x="0" y="1026.53" width="5000" height="1889.47">
			<feColorMatrix  type="matrix" values="1 0 0 0 0  0 1 0 0 0  0 0 1 0 0  0 0 0 1 0"/>
		</filter>
	</defs>
	
		<mask maskUnits="userSpaceOnUse" x="0" y="1026.53" width="5000" height="1889.47" id="SVGID_00000060715884069069662910000004249833483249526402_">
		<g style="filter:url(#Adobe_OpacityMaskFilter_00000178903884904246208330000008853929442380769452_);">
			
				<linearGradient id="SVGID_00000011729595291211245670000008922482211666643624_" gradientUnits="userSpaceOnUse" x1="4177.5903" y1="2629.4622" x2="1692.5823" y2="1654.4771">
				<stop  offset="0" style="stop-color:#FFFFFF"/>
				<stop  offset="1" style="stop-color:#000000"/>
			</linearGradient>
			
				<rect y="1026.53" style="fill:url(#SVGID_00000011729595291211245670000008922482211666643624_);" width="5000" height="1889.47"/>
		</g>
	</mask>
	
		<path style="mask:url(#SVGID_00000060715884069069662910000004249833483249526402_);fill-rule:evenodd;clip-rule:evenodd;fill:#EDEEEE;" d="
		M799.637,1157.62c362.741-16.173,753.112,148.946,983.551,415.918c140.758,163.089,220.688,353.929,319.802,535.659
		c167.919,308.049,471.915,557.437,840.317,679.916c375.86,124.985,764.379,100.904,1147.571,126.887H5000v-17.654
		c-335.949-56.463-655.843-95.946-719.115-102.326c-421.811-42.671-852.417,1.146-1267.578-136.908
		c-368.402-122.479-672.398-371.867-840.317-679.916c-99.114-181.729-179.043-372.569-319.802-535.658
		c-230.439-266.972-620.809-432.091-983.551-415.918c-318.406,14.203-590.726,154.43-861.031,278.001
		c-2.866,1.311-5.735,2.615-8.607,3.913v97.822C250.373,1291.555,505.315,1170.748,799.637,1157.62"/>
	<defs>
		
			<filter id="Adobe_OpacityMaskFilter_00000148633297425323163960000005672413875165850272_" filterUnits="userSpaceOnUse" x="0" y="896.53" width="5000" height="2001.816">
			<feColorMatrix  type="matrix" values="1 0 0 0 0  0 1 0 0 0  0 0 1 0 0  0 0 0 1 0"/>
		</filter>
	</defs>
	
		<mask maskUnits="userSpaceOnUse" x="0" y="896.53" width="5000" height="2001.816" id="SVGID_00000154415896797653495470000004937423780879550629_">
		<g style="filter:url(#Adobe_OpacityMaskFilter_00000148633297425323163960000005672413875165850272_);">
			
				<linearGradient id="SVGID_00000065763956446227981570000008452974444565298080_" gradientUnits="userSpaceOnUse" x1="292.6118" y1="1106.7357" x2="4077.5991" y2="2471.7512" gradientTransform="matrix(1 0 0 1 0 -5.3691)">
				<stop  offset="0" style="stop-color:#FFFFFF"/>
				<stop  offset="1" style="stop-color:#000000"/>
			</linearGradient>
			
				<rect y="896.529" style="fill:url(#SVGID_00000065763956446227981570000008452974444565298080_);" width="5000" height="2001.816"/>
		</g>
	</mask>
	
		<path style="mask:url(#SVGID_00000154415896797653495470000004937423780879550629_);fill-rule:evenodd;clip-rule:evenodd;fill:#EDEEEE;" d="
		M869.638,1027.62c362.742-16.173,753.112,148.946,983.551,415.918c140.758,163.089,220.688,353.929,319.802,535.658
		c167.919,308.049,471.916,557.437,840.317,679.916c415.161,138.054,845.767,94.237,1267.578,136.908
		c63.271,6.38,383.166,45.863,719.115,102.326v-141.564c-309.337-50.247-590.258-84.827-649.115-90.762
		c-421.811-42.67-852.416,1.146-1267.577-136.908c-368.403-122.479-672.399-371.867-840.318-679.916
		c-99.114-181.729-179.043-372.569-319.802-535.659c-230.439-266.972-620.81-432.091-983.551-415.918
		c-318.406,14.203-590.726,154.43-861.031,278.001C52.61,1187.504,26.4,1198.906,0,1209.799v99.734
		c2.872-1.297,5.741-2.602,8.607-3.913C278.911,1182.049,551.231,1041.822,869.638,1027.62"/>
	<defs>
		
			<filter id="Adobe_OpacityMaskFilter_00000011744839069426452400000016319082225487574438_" filterUnits="userSpaceOnUse" x="0" y="766.529" width="5000" height="1990.252">
			<feColorMatrix  type="matrix" values="1 0 0 0 0  0 1 0 0 0  0 0 1 0 0  0 0 0 1 0"/>
		</filter>
	</defs>
	
		<mask maskUnits="userSpaceOnUse" x="0" y="766.529" width="5000" height="1990.252" id="SVGID_00000176008536625298800260000010189972959293214595_">
		<g style="filter:url(#Adobe_OpacityMaskFilter_00000011744839069426452400000016319082225487574438_);">
			
				<linearGradient id="SVGID_00000008863753302119630770000011994240449336804519_" gradientUnits="userSpaceOnUse" x1="4780.561" y1="2738.6738" x2="1326.588" y2="1332.2899" gradientTransform="matrix(1 0 0 1 0 -48.4228)">
				<stop  offset="0" style="stop-color:#FFFFFF"/>
				<stop  offset="1" style="stop-color:#000000"/>
			</linearGradient>
			
				<rect y="766.529" style="fill:url(#SVGID_00000008863753302119630770000011994240449336804519_);" width="5000" height="1990.252"/>
		</g>
	</mask>
	
		<path style="mask:url(#SVGID_00000176008536625298800260000010189972959293214595_);fill-rule:evenodd;clip-rule:evenodd;fill:#EDEEEE;" d="
		M939.638,897.619c362.741-16.173,753.112,148.946,983.551,415.918c140.758,163.089,220.688,353.93,319.802,535.659
		c167.919,308.048,471.915,557.437,840.318,679.916c415.161,138.054,845.766,94.238,1267.577,136.908
		c58.857,5.934,339.777,40.514,649.115,90.762v-141.188c-280.782-44.153-524.733-74.091-579.115-79.574
		c-421.811-42.67-852.416,1.146-1267.576-136.908c-368.403-122.479-672.398-371.867-840.318-679.916
		c-99.113-181.729-179.043-372.569-319.802-535.659c-230.439-266.972-620.809-432.09-983.551-415.918
		c-318.406,14.203-590.726,154.43-861.031,278.001c-48.836,22.322-98.421,42.95-148.607,61.682v102.497
		c26.4-10.893,52.61-22.296,78.607-34.18C348.912,1052.049,621.232,911.822,939.638,897.619"/>
	<defs>
		
			<filter id="Adobe_OpacityMaskFilter_00000182498821842007196350000003952097725002796981_" filterUnits="userSpaceOnUse" x="0" y="636.529" width="5000" height="1979.065">
			<feColorMatrix  type="matrix" values="1 0 0 0 0  0 1 0 0 0  0 0 1 0 0  0 0 0 1 0"/>
		</filter>
	</defs>
	
		<mask maskUnits="userSpaceOnUse" x="0" y="636.529" width="5000" height="1979.065" id="SVGID_00000093135418660494670470000016632641497722881946_">
		<g style="filter:url(#Adobe_OpacityMaskFilter_00000182498821842007196350000003952097725002796981_);">
			
				<linearGradient id="SVGID_00000088842619329431720150000005572508408543242641_" gradientUnits="userSpaceOnUse" x1="77.6877" y1="1019.6553" x2="5126.0542" y2="2473.8806" gradientTransform="matrix(1 0 0 1 0 -91.362)">
				<stop  offset="0" style="stop-color:#FFFFFF"/>
				<stop  offset="1" style="stop-color:#000000"/>
			</linearGradient>
			
				<rect y="636.529" style="fill:url(#SVGID_00000088842619329431720150000005572508408543242641_);" width="5000" height="1979.065"/>
		</g>
	</mask>
	
		<path style="mask:url(#SVGID_00000093135418660494670470000016632641497722881946_);fill-rule:evenodd;clip-rule:evenodd;fill:#EDEEEE;" d="
		M1009.638,767.619c362.742-16.172,753.112,148.946,983.551,415.918c140.759,163.089,220.689,353.93,319.802,535.659
		c167.92,308.048,471.915,557.437,840.318,679.916c415.16,138.054,845.766,94.239,1267.576,136.908
		c54.382,5.483,298.333,35.421,579.115,79.574v-140.838c-250.492-38.181-459.308-63.714-509.114-68.737
		c-421.811-42.67-852.415,1.146-1267.577-136.908c-368.403-122.479-672.398-371.867-840.318-679.916
		c-99.113-181.729-179.043-372.569-319.801-535.659c-230.439-266.972-620.81-432.09-983.552-415.918
		c-318.406,14.203-590.725,154.43-861.03,278.001C147.187,948.266,74.16,977.285,0,1002.058v105.244
		c50.186-18.733,99.771-39.36,148.607-61.682C418.912,922.048,691.232,781.821,1009.638,767.619"/>
	<defs>
		
			<filter id="Adobe_OpacityMaskFilter_00000157310057572009316960000004657190771166151087_" filterUnits="userSpaceOnUse" x="0" y="506.528" width="5000" height="1968.228">
			<feColorMatrix  type="matrix" values="1 0 0 0 0  0 1 0 0 0  0 0 1 0 0  0 0 0 1 0"/>
		</filter>
	</defs>
	
		<mask maskUnits="userSpaceOnUse" x="0" y="506.528" width="5000" height="1968.228" id="SVGID_00000104697350844026161920000016279174043570675338_">
		<g style="filter:url(#Adobe_OpacityMaskFilter_00000157310057572009316960000004657190771166151087_);">
			
				<linearGradient id="SVGID_00000145056318719984659060000017132238668467365537_" gradientUnits="userSpaceOnUse" x1="4813.4214" y1="2425.1484" x2="1243.4442" y2="1190.1398" gradientTransform="matrix(1 0 0 1 0 -134.1947)">
				<stop  offset="0" style="stop-color:#FFFFFF"/>
				<stop  offset="1" style="stop-color:#000000"/>
			</linearGradient>
			
				<rect y="506.528" style="fill:url(#SVGID_00000145056318719984659060000017132238668467365537_);" width="5000" height="1968.228"/>
		</g>
	</mask>
	
		<path style="mask:url(#SVGID_00000104697350844026161920000016279174043570675338_);fill-rule:evenodd;clip-rule:evenodd;fill:#EDEEEE;" d="
		M1079.638,637.618c362.742-16.172,753.113,148.947,983.552,415.918c140.757,163.09,220.688,353.93,319.801,535.659
		c167.92,308.049,471.915,557.437,840.318,679.916c415.161,138.054,845.766,94.239,1267.577,136.908
		c49.806,5.023,258.622,30.556,509.114,68.737v-140.508c-218.646-32.329-394.029-53.682-439.113-58.229
		c-421.811-42.67-852.416,1.146-1267.578-136.908c-368.402-122.479-672.397-371.867-840.318-679.916
		c-99.113-181.729-179.044-372.569-319.801-535.659c-230.439-266.971-620.81-432.091-983.552-415.918
		c-318.406,14.204-590.725,154.43-861.03,278.001C194.817,828.49,98.26,865.105,0,894.067v107.991
		c74.16-24.773,147.187-53.792,218.608-86.439C488.913,792.048,761.232,651.821,1079.638,637.618"/>
	<defs>
		
			<filter id="Adobe_OpacityMaskFilter_00000040560807327493678930000005769118144810801853_" filterUnits="userSpaceOnUse" x="0" y="376.529" width="5000" height="1957.719">
			<feColorMatrix  type="matrix" values="1 0 0 0 0  0 1 0 0 0  0 0 1 0 0  0 0 0 1 0"/>
		</filter>
	</defs>
	
		<mask maskUnits="userSpaceOnUse" x="0" y="376.529" width="5000" height="1957.719" id="SVGID_00000151540835774909877940000012063278996902888081_">
		<g style="filter:url(#Adobe_OpacityMaskFilter_00000040560807327493678930000005769118144810801853_);">
			
				<linearGradient id="SVGID_00000133526240188182659760000000876949673348079268_" gradientUnits="userSpaceOnUse" x1="201.0659" y1="841.5084" x2="5141.9102" y2="2326.1831" gradientTransform="matrix(1 0 0 1 0 -176.9272)">
				<stop  offset="0" style="stop-color:#FFFFFF"/>
				<stop  offset="1" style="stop-color:#000000"/>
			</linearGradient>
			
				<rect y="376.529" style="fill:url(#SVGID_00000133526240188182659760000000876949673348079268_);" width="5000" height="1957.719"/>
		</g>
	</mask>
	
		<path style="mask:url(#SVGID_00000151540835774909877940000012063278996902888081_);fill-rule:evenodd;clip-rule:evenodd;fill:#EDEEEE;" d="
		M1149.639,507.617c362.742-16.172,753.113,148.948,983.552,415.918c140.757,163.089,220.688,353.93,319.801,535.659
		c167.92,308.048,471.916,557.437,840.318,679.916c415.162,138.055,845.767,94.239,1267.578,136.908
		c45.084,4.547,220.468,25.9,439.113,58.229v-140.196c-185.412-26.599-328.954-43.984-369.113-48.034
		c-421.811-42.669-852.416,1.147-1267.577-136.908c-368.402-122.479-672.398-371.867-840.318-679.916
		c-99.113-181.729-179.042-372.569-319.801-535.658c-230.439-266.972-620.81-432.091-983.551-415.918
		c-318.406,14.203-590.726,154.429-861.031,278.001C242.633,708.632,122.427,752.076,0,783.315v110.752
		c98.26-28.962,194.817-65.576,288.609-108.448C558.913,662.047,831.232,521.821,1149.639,507.617"/>
	<defs>
		
			<filter id="Adobe_OpacityMaskFilter_00000135693420972365506520000009447769104973090985_" filterUnits="userSpaceOnUse" x="0" y="246.528" width="5000" height="1947.524">
			<feColorMatrix  type="matrix" values="1 0 0 0 0  0 1 0 0 0  0 0 1 0 0  0 0 0 1 0"/>
		</filter>
	</defs>
	
		<mask maskUnits="userSpaceOnUse" x="0" y="246.528" width="5000" height="1947.524" id="SVGID_00000061473087409692753430000011713892410847090336_">
		<g style="filter:url(#Adobe_OpacityMaskFilter_00000135693420972365506520000009447769104973090985_);">
			
				<linearGradient id="SVGID_00000108997276163454027060000005830302516307957654_" gradientUnits="userSpaceOnUse" x1="4847.6235" y1="2333.1008" x2="287.6357" y2="598.0726" gradientTransform="matrix(1 0 0 1 0 -219.5646)">
				<stop  offset="0" style="stop-color:#FFFFFF"/>
				<stop  offset="1" style="stop-color:#000000"/>
			</linearGradient>
			
				<rect y="246.528" style="fill:url(#SVGID_00000108997276163454027060000005830302516307957654_);" width="5000" height="1947.524"/>
		</g>
	</mask>
	
		<path style="mask:url(#SVGID_00000061473087409692753430000011713892410847090336_);fill-rule:evenodd;clip-rule:evenodd;fill:#EDEEEE;" d="
		M1219.64,377.618c362.741-16.173,753.112,148.947,983.551,415.918c140.758,163.089,220.688,353.929,319.801,535.658
		c167.92,308.049,471.916,557.437,840.318,679.916c415.161,138.055,845.767,94.238,1267.577,136.908
		c40.16,4.05,183.701,21.435,369.113,48.034v-139.891c-150.958-21-264.17-34.619-299.112-38.143
		c-421.811-42.67-852.417,1.146-1267.578-136.908c-368.402-122.479-672.397-371.867-840.317-679.916
		c-99.114-181.729-179.043-372.569-319.802-535.658c-230.439-266.972-620.809-432.091-983.551-415.918
		C971.234,261.82,698.914,402.046,428.609,525.618C290.601,588.702,146.603,638.237,0,669.779v113.536
		c122.427-31.24,242.633-74.684,358.609-127.696C628.914,532.047,901.233,391.821,1219.64,377.618"/>
	<defs>
		
			<filter id="Adobe_OpacityMaskFilter_00000045614757555755657280000012905249294120275373_" filterUnits="userSpaceOnUse" x="0" y="116.528" width="5000" height="1937.633">
			<feColorMatrix  type="matrix" values="1 0 0 0 0  0 1 0 0 0  0 0 1 0 0  0 0 0 1 0"/>
		</filter>
	</defs>
	
		<mask maskUnits="userSpaceOnUse" x="0" y="116.528" width="5000" height="1937.633" id="SVGID_00000088841139030380902470000001600396573805780130_">
		<g style="filter:url(#Adobe_OpacityMaskFilter_00000045614757555755657280000012905249294120275373_);">
			
				<linearGradient id="SVGID_00000106112409346560991650000009280742758848807098_" gradientUnits="userSpaceOnUse" x1="155.5396" y1="647.4656" x2="4440.0532" y2="1926.6973" gradientTransform="matrix(1 0 0 1 0 -262.1095)">
				<stop  offset="0" style="stop-color:#FFFFFF"/>
				<stop  offset="1" style="stop-color:#000000"/>
			</linearGradient>
			
				<rect y="116.527" style="fill:url(#SVGID_00000106112409346560991650000009280742758848807098_);" width="5000" height="1937.633"/>
		</g>
	</mask>
	
		<path style="mask:url(#SVGID_00000088841139030380902470000001600396573805780130_);fill-rule:evenodd;clip-rule:evenodd;fill:#EDEEEE;" d="
		M1289.64,247.617c362.742-16.173,753.112,148.947,983.551,415.918c140.758,163.089,220.688,353.929,319.802,535.658
		c167.919,308.049,471.915,557.437,840.317,679.916c415.161,138.054,845.767,94.238,1267.578,136.908
		c34.942,3.524,148.154,17.143,299.112,38.143v-139.584c-115.478-15.551-199.812-25.604-229.113-28.56
		c-421.811-42.67-852.416,1.147-1267.576-136.908c-368.403-122.479-672.399-371.867-840.318-679.916
		c-99.114-181.729-179.044-372.569-319.802-535.658c-230.439-266.972-620.809-432.091-983.551-415.918
		c-318.406,14.203-590.727,154.429-861.031,278.001C338.693,468.716,170.735,523.622,0,553.422v116.357
		c146.603-31.543,290.601-81.078,428.609-144.161C698.914,402.046,971.234,261.82,1289.64,247.617"/>
</g>
</svg>
